<?xml version="1.0" encoding="UTF-8"?>
<svg xmlns="http://www.w3.org/2000/svg" viewBox="0 0 128 128">
  <defs>
    <linearGradient id="htmlGradient" x1="0%" y1="0%" x2="100%" y2="100%">
      <stop offset="0%" style="stop-color:#E44D26;stop-opacity:1" />
      <stop offset="100%" style="stop-color:#F16529;stop-opacity:1" />
    </linearGradient>
  </defs>
  
  <!-- HTML5 Shield Background -->
  <path fill="url(#htmlGradient)" d="M19.037 113.876L9.032 1.661h109.936l-10.016 112.198-45.019 12.48z"/>
  
  <!-- Inner Orange Section -->
  <path fill="#F16529" d="M64 116.8l36.378-10.086 8.559-95.878H64z"/>
  
  <!-- Left Side Elements -->
  <path fill="#EBEBEB" d="M64 52.455H45.788L44.53 38.361H64V24.599H29.489l.33 3.692 3.382 37.927H64zm0 35.743l-.061.017-15.327-4.14-.979-10.975H33.816l1.928 21.609 28.193 7.826.063-.017z"/>
  
  <!-- Right Side Elements -->
  <path fill="#FFFFFF" d="M63.952 52.455v13.763h16.947l-1.597 17.849-15.35 4.143v14.319l28.215-7.82.207-2.325 3.234-36.233.335-3.696H63.952zm0-27.856v13.762h33.244l.276-3.092.628-6.978.329-3.692H63.952z"/>
  
  <!-- HTML5 Text -->
  <text x="64" y="140" font-family="Arial, sans-serif" font-size="12" font-weight="bold" text-anchor="middle" fill="#333">
    HTML5
  </text>
</svg>