<svg xmlns="http://www.w3.org/2000/svg" viewBox="0 0 256 549">
  <path fill="#01EC64" d="M175.622 61.108C152.612 33.807 132.797 6.078 128.749.32a1.03 1.03 0 0 0-1.492 0c-4.048 5.759-23.863 33.487-46.874 60.788-197.507 251.896 31.108 421.89 31.108 421.89l1.917 1.28c1.704 26.234 5.966 63.988 5.966 63.988h17.045s4.26-37.54 5.965-63.987l1.918-1.494c.213.214 228.828-169.78 31.32-421.677Zm-47.726 418.05s-10.227-8.744-12.997-13.222v-.428l12.997-69.876c9.976 11.716 26.362 13.436 26.362 13.436l-26.362 70.09Z"/>
  <path fill="#13AA52" d="M161.145 107.314c0 70.313-14.362 126.438-32.145 126.438-17.784 0-32.146-56.125-32.146-126.438C96.854 37 114.216 0 129 0c14.783 0 32.145 37 32.145 107.314Z"/>
</svg>