<?xml version="1.0" encoding="UTF-8"?>
<svg xmlns="http://www.w3.org/2000/svg" viewBox="0 0 128 128">
  <defs>
    <!-- Node.js Green Gradient -->
    <linearGradient id="nodeGradient" x1="0%" y1="0%" x2="100%" y2="100%">
      <stop offset="0%" style="stop-color:#8CC84B;stop-opacity:1" />
      <stop offset="100%" style="stop-color:#83CD29;stop-opacity:1" />
    </linearGradient>
  </defs>
  
  <!-- Node.js Logo Shape -->
  <path fill="#83CD29" d="M112.771 30.334L68.674 4.729c-2.781-1.584-6.402-1.584-9.205 0L14.901 30.334C12.031 31.985 10.14 35.088 10.14 38.407v51.142c0 3.319 1.891 6.423 4.762 8.083l11.274 6.659c6.152 3.037 8.397 3.037 11.274 3.037 9.36 0 14.66-5.666 14.66-15.142V43.926c0-.704.819-1.279 1.684-1.279h7.308c.79 0 1.684.575 1.684 1.279v48.26c0 15.058-8.162 23.907-22.632 23.907-4.407 0-7.834 0-17.355-4.749L7.140 95.53c-2.708-1.529-4.351-4.428-4.351-7.530V36.334c0-3.103 1.643-6.01 4.351-7.539L51.429 2.748c2.616-1.492 6.053-1.492 8.669 0l44.289 26.047c2.708 1.529 4.351 4.428 4.351 7.539v51.142c0 3.103-1.643 6.01-4.351 7.53L81.146 109.676c-2.616 1.492-6.053 1.492-8.669 0l-11.275-6.676c-.79-.46-1.684-.575-2.473-.23-.79.345-1.279 1.035-1.279 1.724 0 .575.263 1.149.79 1.494l11.274 6.659c1.316.756 2.708 1.149 4.099 1.149 1.391 0 2.783-.394 4.099-1.149l44.289-26.047c2.708-1.529 4.351-4.428 4.351-7.53V36.334c0-3.103-1.643-6.01-4.351-7.539z"/>
  
  <!-- Node.js Text -->
  <path fill="#404137" d="M87.69 61.464c0-4.749-3.908-6.413-12.072-7.374-8.397-.979-9.226-1.487-9.226-3.222 0-1.437.79-3.222 7.624-3.222 6.152 0 8.397 1.437 9.360 5.666.263.79 1.053 1.279 1.842 1.279h7.308c.526 0 .79-.23 1.053-.575.263-.345.263-.79.263-1.149-.79-8.968-6.152-13.717-19.737-13.717-11.274 0-18.092 4.749-18.092 12.687 0 4.749 3.645 6.413 11.808 7.374 9.889.979 10.454 2.466 10.454 3.222 0 2.466-1.842 3.222-7.624 3.222-6.152 0-8.397-1.437-9.360-5.666-.263-.79-1.053-1.279-1.842-1.279h-7.308c-.526 0-.79.23-1.053.575-.263.345-.263.79-.263 1.149.79 8.968 6.152 13.717 19.737 13.717 11.274 0 18.092-4.749 18.092-12.687z"/>
  
  <!-- Node.js Label -->
  <text x="64" y="140" text-anchor="middle" font-family="Arial, sans-serif" font-size="8" fill="#83CD29" font-weight="bold">Node.js</text>
</svg>