<svg xmlns="http://www.w3.org/2000/svg" viewBox="0 0 256 292">
  <path fill="#95BF47" d="M223.774 57.34c-.201-1.46-1.48-2.268-2.537-2.357a19614 19614 0 0 0-23.383-1.743s-15.507-15.395-17.209-17.099c-1.703-1.703-5.029-1.185-6.32-.805-.19.056-3.388 1.043-8.678 2.68-5.18-14.906-14.322-28.604-30.405-28.604-.444 0-.901.018-1.358.044C129.31 3.407 123.644.779 118.75.779c-37.465 0-55.364 46.835-61.14 70.716a19614 19614 0 0 0-16.975 5.179C35.19 78.51 34.55 79.19 34.55 85.032c-.18 4.638-15.226 117.64-15.226 117.64l121.303 21.248 145.03-31.954S223.975 58.8 223.774 57.34ZM156.49 40.848l-14.019 4.339c.54-2.078.998-4.15 1.358-6.179 0-1.683-.044-3.32-.134-4.913 5.931 1.08 10.803 3.726 12.795 6.753ZM139.381 37.9c.18 1.415.27 2.864.27 4.339 0 3.366-1.036 6.753-2.849 10.139l-9.714 3.006c2.849-8.187 7.737-14.906 12.293-17.484ZM102.206 23.538c2.849 0 5.409 1.621 7.737 4.205-9.024 4.428-17.508 14.906-21.028 27.467l-8.004 2.492c5.847-18.906 16.41-34.164 21.295-34.164Z"/>
  <path fill="#5E8E3E" d="M221.237 54.983a19614 19614 0 0 0-23.383-1.743s-15.507-15.395-17.209-17.099c-.637-.637-1.496-.959-2.394-1.099l-52.365 157.33 145.03-31.954S223.975 58.8 223.774 57.34c-.201-1.46-1.48-2.268-2.537-2.357Z"/>
  <path fill="#FFFFFF" d="m135.968 72.49-5.929 21.248c-8.187-1.46-14.322-.805-16.975 1.981-6.09 6.314-3.864 17.099-.089 23.383 7.558 12.584 8.678 20.683 8.678 27.467 0 13.568-5.698 22.046-14.322 22.046-12.584 0-18.906-15.955-18.906-15.955l-3.32 17.099s6.537 12.584 20.683 12.584c10.583 0 20.683-8.187 25.57-18.906 6.09-13.568 2.582-24.353-4.428-33.477-6.537-8.678-8.187-14.322-8.187-20.683 0-10.583 6.537-18.906 16.975-18.906 8.187 0 12.584 5.698 12.584 5.698l5.698-21.248s-9.714-6.537-18.906-6.537c-.089 0-.134 0-.134 0Z"/>
</svg>