<svg xmlns="http://www.w3.org/2000/svg" viewBox="0 0 256 256">
  <defs>
    <linearGradient id="a" x1="50%" y1="0%" x2="50%" y2="100%">
      <stop offset="0%" stop-color="#8E75FF"/>
      <stop offset="100%" stop-color="#0052FF"/>
    </linearGradient>
  </defs>
  <path fill="url(#a)" d="M128 0C57.308 0 0 57.308 0 128s57.308 128 128 128 128-57.308 128-128S198.692 0 128 0Zm0 234.667C64.205 234.667 21.333 191.795 21.333 128S64.205 21.333 128 21.333 234.667 64.205 234.667 128 191.795 234.667 128 234.667Z"/>
  <path fill="url(#a)" d="M128 42.667c-47.128 0-85.333 38.205-85.333 85.333S80.872 213.333 128 213.333 213.333 175.128 213.333 128 175.128 42.667 128 42.667Zm0 149.333c-35.346 0-64-28.654-64-64s28.654-64 64-64 64 28.654 64 64-28.654 64-64 64Z"/>
  <circle fill="url(#a)" cx="128" cy="128" r="32"/>
</svg>